<svg xmlns="http://www.w3.org/2000/svg" width="1625.9891357421875" height="1384.332763671875" viewBox="-730.5741577148438 -525.85546875 1625.9891357421875 1384.332763671875"><title>Neo4j Graph Visualization</title><desc>Created using Neo4j (http://www.neo4j.com/)</desc><g class="layer relationships"><g class="relationship" transform="translate(193.90078279443588 481.4540153358834) rotate(432.2738760344471)"><path class="b-outline" fill="#A5ABB6" stroke="none" d="M 25 0.5 L 70.16908221646393 0.5 L 70.16908221646393 -0.5 L 25 -0.5 Z M 130.26283221646395 0.5 L 175.43191443292787 0.5 L 175.43191443292787 3.5 L 182.43191443292787 0 L 175.43191443292787 -3.5 L 175.43191443292787 -0.5 L 130.26283221646395 -0.5 Z"/><text text-anchor="middle" pointer-events="none" font-size="8px" fill="#000000" x="100.21595721646393" y="3" font-family="Helvetica Neue, Helvetica, Arial, sans-serif">BELONGS_TO</text></g><g class="relationship" transform="translate(-84.26389600702576 -340.6001526635646) rotate(267.9656409060035)"><path class="b-outline" fill="#A5ABB6" stroke="none" d="M 25 0.5 L 44.6300496990109 0.5 L 44.6300496990109 -0.5 L 25 -0.5 Z M 104.7237996990109 0.5 L 124.3538493980218 0.5 L 124.3538493980218 3.5 L 131.3538493980218 0 L 124.3538493980218 -3.5 L 124.3538493980218 -0.5 L 104.7237996990109 -0.5 Z"/><text text-anchor="middle" pointer-events="none" font-size="8px" fill="#000000" x="74.6769246990109" y="3" transform="rotate(180 74.6769246990109 0)" font-family="Helvetica Neue, Helvetica, Arial, sans-serif">BELONGS_TO</text></g><g class="relationship" transform="translate(-701.5741286943747 610.9092782239383) rotate(395.3846599156622)"><path class="b-outline" fill="#A5ABB6" stroke="none" d="M 25 0.5 L 87.36350741014647 0.5 L 87.36350741014647 -0.5 L 25 -0.5 Z M 150.41428866014647 0.5 L 212.77779607029294 0.5 L 212.77779607029294 3.5 L 219.77779607029294 0 L 212.77779607029294 -3.5 L 212.77779607029294 -0.5 L 150.41428866014647 -0.5 Z"/><text text-anchor="middle" pointer-events="none" font-size="8px" fill="#000000" x="118.88889803514647" y="3" font-family="Helvetica Neue, Helvetica, Arial, sans-serif">WAS_USED_IN</text></g><g class="relationship" transform="translate(-701.5741286943747 610.9092782239383) rotate(407.8121816618675)"><path class="b-outline" fill="#A5ABB6" stroke="none" d="M 25 0.5 L 112.46688763422324 0.5 L 112.46688763422324 -0.5 L 25 -0.5 Z M 175.51766888422324 0.5 L 262.9845565184465 0.5 L 262.9845565184465 3.5 L 269.9845565184465 0 L 262.9845565184465 -3.5 L 262.9845565184465 -0.5 L 175.51766888422324 -0.5 Z"/><text text-anchor="middle" pointer-events="none" font-size="8px" fill="#000000" x="143.99227825922324" y="3" font-family="Helvetica Neue, Helvetica, Arial, sans-serif">WAS_USED_IN</text></g><g class="relationship" transform="translate(-701.5741286943747 610.9092782239383) rotate(379.55049041179296)"><path class="b-outline" fill="#A5ABB6" stroke="none" d="M 25 0.5 L 52.551344382540165 0.5 L 52.551344382540165 -0.5 L 25 -0.5 Z M 115.60212563254017 0.5 L 143.15347001508033 0.5 L 143.15347001508033 3.5 L 150.15347001508033 0 L 143.15347001508033 -3.5 L 143.15347001508033 -0.5 L 115.60212563254017 -0.5 Z"/><text text-anchor="middle" pointer-events="none" font-size="8px" fill="#000000" x="84.07673500754017" y="3" font-family="Helvetica Neue, Helvetica, Arial, sans-serif">WAS_USED_IN</text></g><g class="relationship" transform="translate(-701.5741286943747 610.9092782239383) rotate(300.19985104926394)"><path class="b-outline" fill="#A5ABB6" stroke="none" d="M 25 0.5 L 70.6375350214107 0.5 L 70.6375350214107 -0.5 L 25 -0.5 Z M 133.6883162714107 0.5 L 179.3258512928214 0.5 L 179.3258512928214 3.5 L 186.3258512928214 0 L 179.3258512928214 -3.5 L 179.3258512928214 -0.5 L 133.6883162714107 -0.5 Z"/><text text-anchor="middle" pointer-events="none" font-size="8px" fill="#000000" x="102.1629256464107" y="3" font-family="Helvetica Neue, Helvetica, Arial, sans-serif">WAS_USED_IN</text></g><g class="relationship" transform="translate(-701.5741286943747 610.9092782239383) rotate(316.6012937905946)"><path class="b-outline" fill="#A5ABB6" stroke="none" d="M 25 0.5 L 105.04969869468556 0.5 L 105.04969869468556 -0.5 L 25 -0.5 Z M 168.10047994468556 0.5 L 248.15017863937112 0.5 L 248.15017863937112 3.5 L 255.15017863937112 0 L 248.15017863937112 -3.5 L 248.15017863937112 -0.5 L 168.10047994468556 -0.5 Z"/><text text-anchor="middle" pointer-events="none" font-size="8px" fill="#000000" x="136.57508931968556" y="3" font-family="Helvetica Neue, Helvetica, Arial, sans-serif">WAS_USED_IN</text></g><g class="relationship" transform="translate(-701.5741286943747 610.9092782239383) rotate(331.3190189187307)"><path class="b-outline" fill="#A5ABB6" stroke="none" d="M 25 0.5 L 68.21902591913359 0.5 L 68.21902591913359 -0.5 L 25 -0.5 Z M 131.26980716913357 0.5 L 174.48883308826717 0.5 L 174.48883308826717 3.5 L 181.48883308826717 0 L 174.48883308826717 -3.5 L 174.48883308826717 -0.5 L 131.26980716913357 -0.5 Z"/><text text-anchor="middle" pointer-events="none" font-size="8px" fill="#000000" x="99.74441654413359" y="3" font-family="Helvetica Neue, Helvetica, Arial, sans-serif">WAS_USED_IN</text></g><g class="relationship" transform="translate(-701.5741286943747 610.9092782239383) rotate(360.67589260249963)"><path class="b-outline" fill="#A5ABB6" stroke="none" d="M 25 0.5 L 102.02234003884985 0.5 L 102.02234003884985 -0.5 L 25 -0.5 Z M 165.07312128884985 0.5 L 242.0954613276997 0.5 L 242.0954613276997 3.5 L 249.0954613276997 0 L 242.0954613276997 -3.5 L 242.0954613276997 -0.5 L 165.07312128884985 -0.5 Z"/><text text-anchor="middle" pointer-events="none" font-size="8px" fill="#000000" x="133.54773066384985" y="3" font-family="Helvetica Neue, Helvetica, Arial, sans-serif">WAS_USED_IN</text></g><g class="relationship" transform="translate(833.852729661117 65.72071918211688) rotate(180.52533907492688)"><path class="b-outline" fill="#A5ABB6" stroke="none" d="M 25 0.5 L 54.54600728656165 0.5 L 54.54600728656165 -0.5 L 25 -0.5 Z M 117.59678853656165 0.5 L 147.1427958231233 0.5 L 147.1427958231233 3.5 L 154.1427958231233 0 L 147.1427958231233 -3.5 L 147.1427958231233 -0.5 L 117.59678853656165 -0.5 Z"/><text text-anchor="middle" pointer-events="none" font-size="8px" fill="#000000" x="86.07139791156165" y="3" transform="rotate(180 86.07139791156165 0)" font-family="Helvetica Neue, Helvetica, Arial, sans-serif">WAS_USED_IN</text></g><g class="relationship" transform="translate(833.852729661117 65.72071918211688) rotate(514.2175796870183)"><path class="b-outline" fill="#A5ABB6" stroke="none" d="M 25 0.5 L 79.49306493599147 0.5 L 79.49306493599147 -0.5 L 25 -0.5 Z M 142.54384618599147 0.5 L 197.03691112198294 0.5 L 197.03691112198294 3.5 L 204.03691112198294 0 L 197.03691112198294 -3.5 L 197.03691112198294 -0.5 L 142.54384618599147 -0.5 Z"/><text text-anchor="middle" pointer-events="none" font-size="8px" fill="#000000" x="111.01845556099147" y="3" transform="rotate(180 111.01845556099147 0)" font-family="Helvetica Neue, Helvetica, Arial, sans-serif">WAS_USED_IN</text></g><g class="relationship" transform="translate(833.852729661117 65.72071918211688) rotate(227.3579156606022)"><path class="b-outline" fill="#A5ABB6" stroke="none" d="M 25 0.5 L 55.07066061138889 0.5 L 55.07066061138889 -0.5 L 25 -0.5 Z M 118.12144186138889 0.5 L 148.19210247277778 0.5 L 148.19210247277778 3.5 L 155.19210247277778 0 L 148.19210247277778 -3.5 L 148.19210247277778 -0.5 L 118.12144186138889 -0.5 Z"/><text text-anchor="middle" pointer-events="none" font-size="8px" fill="#000000" x="86.59605123638889" y="3" transform="rotate(180 86.59605123638889 0)" font-family="Helvetica Neue, Helvetica, Arial, sans-serif">WAS_USED_IN</text></g><g class="relationship" transform="translate(833.852729661117 65.72071918211688) rotate(444.3922866058528)"><path class="b-outline" fill="#A5ABB6" stroke="none" d="M 25 0.5 L 131.58966295705275 0.5 L 131.58966295705275 -0.5 L 25 -0.5 Z M 194.64044420705275 0.5 L 301.2301071641055 0.5 L 301.2301071641055 3.5 L 308.2301071641055 0 L 301.2301071641055 -3.5 L 301.2301071641055 -0.5 L 194.64044420705275 -0.5 Z"/><text text-anchor="middle" pointer-events="none" font-size="8px" fill="#000000" x="163.11505358205275" y="3" font-family="Helvetica Neue, Helvetica, Arial, sans-serif">WAS_USED_IN</text></g><g class="relationship" transform="translate(833.852729661117 65.72071918211688) rotate(470.59013316816356)"><path class="b-outline" fill="#A5ABB6" stroke="none" d="M 25 0.5 L 62.260859170246846 0.5 L 62.260859170246846 -0.5 L 25 -0.5 Z M 125.31164042024685 0.5 L 162.5724995904937 0.5 L 162.5724995904937 3.5 L 169.5724995904937 0 L 162.5724995904937 -3.5 L 162.5724995904937 -0.5 L 125.31164042024685 -0.5 Z"/><text text-anchor="middle" pointer-events="none" font-size="8px" fill="#000000" x="93.78624979524685" y="3" transform="rotate(180 93.78624979524685 0)" font-family="Helvetica Neue, Helvetica, Arial, sans-serif">WAS_USED_IN</text></g><g class="relationship" transform="translate(833.852729661117 65.72071918211688) rotate(453.98416826587686)"><path class="b-outline" fill="#A5ABB6" stroke="none" d="M 25 0.5 L 82.8772825071598 0.5 L 82.8772825071598 -0.5 L 25 -0.5 Z M 145.9280637571598 0.5 L 203.8053462643196 0.5 L 203.8053462643196 3.5 L 210.8053462643196 0 L 203.8053462643196 -3.5 L 203.8053462643196 -0.5 L 145.9280637571598 -0.5 Z"/><text text-anchor="middle" pointer-events="none" font-size="8px" fill="#000000" x="114.4026731321598" y="3" transform="rotate(180 114.4026731321598 0)" font-family="Helvetica Neue, Helvetica, Arial, sans-serif">WAS_USED_IN</text></g><g class="relationship" transform="translate(833.852729661117 65.72071918211688) rotate(497.5170970439302)"><path class="b-outline" fill="#A5ABB6" stroke="none" d="M 25 0.5 L 68.55166887520494 0.5 L 68.55166887520494 -0.5 L 25 -0.5 Z M 131.60245012520494 0.5 L 175.15411900040988 0.5 L 175.15411900040988 3.5 L 182.15411900040988 0 L 175.15411900040988 -3.5 L 175.15411900040988 -0.5 L 131.60245012520494 -0.5 Z"/><text text-anchor="middle" pointer-events="none" font-size="8px" fill="#000000" x="100.07705950020494" y="3" transform="rotate(180 100.07705950020494 0)" font-family="Helvetica Neue, Helvetica, Arial, sans-serif">WAS_USED_IN</text></g><g class="relationship" transform="translate(833.852729661117 65.72071918211688) rotate(189.674682436073)"><path class="b-outline" fill="#A5ABB6" stroke="none" d="M 25 0.5 L 200.27603621379043 0.5 L 200.27603621379043 -0.5 L 25 -0.5 Z M 263.32681746379046 0.5 L 438.60285367758087 0.5 L 438.60285367758087 3.5 L 445.60285367758087 0 L 438.60285367758087 -3.5 L 438.60285367758087 -0.5 L 263.32681746379046 -0.5 Z"/><text text-anchor="middle" pointer-events="none" font-size="8px" fill="#000000" x="231.80142683879043" y="3" transform="rotate(180 231.80142683879043 0)" font-family="Helvetica Neue, Helvetica, Arial, sans-serif">WAS_USED_IN</text></g><g class="relationship" transform="translate(833.852729661117 65.72071918211688) rotate(200.83879241348893)"><path class="b-outline" fill="#A5ABB6" stroke="none" d="M 25 0.5 L 212.75218463797603 0.5 L 212.75218463797603 -0.5 L 25 -0.5 Z M 275.80296588797603 0.5 L 463.55515052595206 0.5 L 463.55515052595206 3.5 L 470.55515052595206 0 L 463.55515052595206 -3.5 L 463.55515052595206 -0.5 L 275.80296588797603 -0.5 Z"/><text text-anchor="middle" pointer-events="none" font-size="8px" fill="#000000" x="244.27757526297603" y="3" transform="rotate(180 244.27757526297603 0)" font-family="Helvetica Neue, Helvetica, Arial, sans-serif">WAS_USED_IN</text></g><g class="relationship" transform="translate(833.852729661117 65.72071918211688) rotate(208.77466131185713)"><path class="b-outline" fill="#A5ABB6" stroke="none" d="M 25 0.5 L 174.40076385604087 0.5 L 174.40076385604087 -0.5 L 25 -0.5 Z M 237.45154510604087 0.5 L 386.85230896208174 0.5 L 386.85230896208174 3.5 L 393.85230896208174 0 L 386.85230896208174 -3.5 L 386.85230896208174 -0.5 L 237.45154510604087 -0.5 Z"/><text text-anchor="middle" pointer-events="none" font-size="8px" fill="#000000" x="205.92615448104087" y="3" transform="rotate(180 205.92615448104087 0)" font-family="Helvetica Neue, Helvetica, Arial, sans-serif">WAS_USED_IN</text></g><g class="relationship" transform="translate(-695.321921688131 194.77034464605728) rotate(352.43542952335395)"><path class="b-outline" fill="#A5ABB6" stroke="none" d="M 25 0.5 L 247.58440441374694 0.5 L 247.58440441374694 -0.5 L 25 -0.5 Z M 310.63518566374694 0.5 L 533.2195900774939 0.5 L 533.2195900774939 3.5 L 540.2195900774939 0 L 533.2195900774939 -3.5 L 533.2195900774939 -0.5 L 310.63518566374694 -0.5 Z"/><text text-anchor="middle" pointer-events="none" font-size="8px" fill="#000000" x="279.10979503874694" y="3" font-family="Helvetica Neue, Helvetica, Arial, sans-serif">WAS_USED_IN</text></g><g class="relationship" transform="translate(-695.321921688131 194.77034464605728) rotate(346.9793482774493)"><path class="b-outline" fill="#A5ABB6" stroke="none" d="M 25 0.5 L 287.9490319735736 0.5 L 287.9490319735736 -0.5 L 25 -0.5 Z M 350.9998132235736 0.5 L 613.9488451971472 0.5 L 613.9488451971472 3.5 L 620.9488451971472 0 L 613.9488451971472 -3.5 L 613.9488451971472 -0.5 L 350.9998132235736 -0.5 Z"/><text text-anchor="middle" pointer-events="none" font-size="8px" fill="#000000" x="319.4744225985736" y="3" font-family="Helvetica Neue, Helvetica, Arial, sans-serif">WAS_USED_IN</text></g><g class="relationship" transform="translate(-695.321921688131 194.77034464605728) rotate(358.9401962892973)"><path class="b-outline" fill="#A5ABB6" stroke="none" d="M 25 0.5 L 152.73731576727573 0.5 L 152.73731576727573 -0.5 L 25 -0.5 Z M 215.78809701727573 0.5 L 343.52541278455146 0.5 L 343.52541278455146 3.5 L 350.52541278455146 0 L 343.52541278455146 -3.5 L 343.52541278455146 -0.5 L 215.78809701727573 -0.5 Z"/><text text-anchor="middle" pointer-events="none" font-size="8px" fill="#000000" x="184.26270639227573" y="3" font-family="Helvetica Neue, Helvetica, Arial, sans-serif">WAS_USED_IN</text></g><g class="relationship" transform="translate(-695.321921688131 194.77034464605728) rotate(400.5401288213131)"><path class="b-outline" fill="#A5ABB6" stroke="none" d="M 25 0.5 L 59.76412607405888 0.5 L 59.76412607405888 -0.5 L 25 -0.5 Z M 122.81490732405888 0.5 L 157.57903339811776 0.5 L 157.57903339811776 3.5 L 164.57903339811776 0 L 157.57903339811776 -3.5 L 157.57903339811776 -0.5 L 122.81490732405888 -0.5 Z"/><text text-anchor="middle" pointer-events="none" font-size="8px" fill="#000000" x="91.28951669905888" y="3" font-family="Helvetica Neue, Helvetica, Arial, sans-serif">WAS_USED_IN</text></g><g class="relationship" transform="translate(-695.321921688131 194.77034464605728) rotate(354.4789260565392)"><path class="b-outline" fill="#A5ABB6" stroke="none" d="M 25 0.5 L 64.17144598366939 0.5 L 64.17144598366939 -0.5 L 25 -0.5 Z M 127.22222723366939 0.5 L 166.39367321733877 0.5 L 166.39367321733877 3.5 L 173.39367321733877 0 L 166.39367321733877 -3.5 L 166.39367321733877 -0.5 L 127.22222723366939 -0.5 Z"/><text text-anchor="middle" pointer-events="none" font-size="8px" fill="#000000" x="95.69683660866939" y="3" font-family="Helvetica Neue, Helvetica, Arial, sans-serif">WAS_USED_IN</text></g><g class="relationship" transform="translate(-695.321921688131 194.77034464605728) rotate(342.2335671757063)"><path class="b-outline" fill="#A5ABB6" stroke="none" d="M 25 0.5 L 224.01698736888187 0.5 L 224.01698736888187 -0.5 L 25 -0.5 Z M 287.06776861888187 0.5 L 486.08475598776374 0.5 L 486.08475598776374 3.5 L 493.08475598776374 0 L 486.08475598776374 -3.5 L 486.08475598776374 -0.5 L 287.06776861888187 -0.5 Z"/><text text-anchor="middle" pointer-events="none" font-size="8px" fill="#000000" x="255.54237799388187" y="3" font-family="Helvetica Neue, Helvetica, Arial, sans-serif">WAS_USED_IN</text></g><g class="relationship" transform="translate(-695.321921688131 194.77034464605728) rotate(378.00849329797535)"><path class="b-outline" fill="#A5ABB6" stroke="none" d="M 25 0.5 L 85.97807084208733 0.5 L 85.97807084208733 -0.5 L 25 -0.5 Z M 149.02885209208733 0.5 L 210.00692293417467 0.5 L 210.00692293417467 3.5 L 217.00692293417467 0 L 210.00692293417467 -3.5 L 210.00692293417467 -0.5 L 149.02885209208733 -0.5 Z"/><text text-anchor="middle" pointer-events="none" font-size="8px" fill="#000000" x="117.50346146708733" y="3" font-family="Helvetica Neue, Helvetica, Arial, sans-serif">WAS_USED_IN</text></g><g class="relationship" transform="translate(-695.321921688131 194.77034464605728) rotate(335.04428523930835)"><path class="b-outline" fill="#A5ABB6" stroke="none" d="M 25 0.5 L 144.03767918693225 0.5 L 144.03767918693225 -0.5 L 25 -0.5 Z M 207.08846043693225 0.5 L 326.1261396238645 0.5 L 326.1261396238645 3.5 L 333.1261396238645 0 L 326.1261396238645 -3.5 L 326.1261396238645 -0.5 L 207.08846043693225 -0.5 Z"/><text text-anchor="middle" pointer-events="none" font-size="8px" fill="#000000" x="175.56306981193225" y="3" font-family="Helvetica Neue, Helvetica, Arial, sans-serif">WAS_USED_IN</text></g><g class="relationship" transform="translate(-695.321921688131 194.77034464605728) rotate(313.96680033372394)"><path class="b-outline" fill="#A5ABB6" stroke="none" d="M 25 0.5 L 146.5227107558188 0.5 L 146.5227107558188 -0.5 L 25 -0.5 Z M 209.5734920058188 0.5 L 331.0962027616376 0.5 L 331.0962027616376 3.5 L 338.0962027616376 0 L 331.0962027616376 -3.5 L 331.0962027616376 -0.5 L 209.5734920058188 -0.5 Z"/><text text-anchor="middle" pointer-events="none" font-size="8px" fill="#000000" x="178.0481013808188" y="3" font-family="Helvetica Neue, Helvetica, Arial, sans-serif">WAS_USED_IN</text></g><g class="relationship" transform="translate(-695.321921688131 194.77034464605728) rotate(324.8908207340272)"><path class="b-outline" fill="#A5ABB6" stroke="none" d="M 25 0.5 L 178.0901667388612 0.5 L 178.0901667388612 -0.5 L 25 -0.5 Z M 241.1409479888612 0.5 L 394.2311147277224 0.5 L 394.2311147277224 3.5 L 401.2311147277224 0 L 394.2311147277224 -3.5 L 394.2311147277224 -0.5 L 241.1409479888612 -0.5 Z"/><text text-anchor="middle" pointer-events="none" font-size="8px" fill="#000000" x="209.6155573638612" y="3" font-family="Helvetica Neue, Helvetica, Arial, sans-serif">WAS_USED_IN</text></g><g class="relationship" transform="translate(250.9447643394393 -455.99608696418755) rotate(517.4259324876431)"><path class="b-outline" fill="#A5ABB6" stroke="none" d="M 25 0.5 L 87.30517923057556 0.5 L 87.30517923057556 -0.5 L 25 -0.5 Z M 150.35596048057556 0.5 L 212.66113971115112 0.5 L 212.66113971115112 3.5 L 219.66113971115112 0 L 212.66113971115112 -3.5 L 212.66113971115112 -0.5 L 150.35596048057556 -0.5 Z"/><text text-anchor="middle" pointer-events="none" font-size="8px" fill="#000000" x="118.83056985557556" y="3" transform="rotate(180 118.83056985557556 0)" font-family="Helvetica Neue, Helvetica, Arial, sans-serif">WAS_USED_IN</text></g><g class="relationship" transform="translate(250.9447643394393 -455.99608696418755) rotate(498.98387234380414)"><path class="b-outline" fill="#A5ABB6" stroke="none" d="M 25 0.5 L 51.06899869489594 0.5 L 51.06899869489594 -0.5 L 25 -0.5 Z M 114.11977994489594 0.5 L 140.18877863979188 0.5 L 140.18877863979188 3.5 L 147.18877863979188 0 L 140.18877863979188 -3.5 L 140.18877863979188 -0.5 L 114.11977994489594 -0.5 Z"/><text text-anchor="middle" pointer-events="none" font-size="8px" fill="#000000" x="82.59438931989594" y="3" transform="rotate(180 82.59438931989594 0)" font-family="Helvetica Neue, Helvetica, Arial, sans-serif">WAS_USED_IN</text></g><g class="relationship" transform="translate(250.9447643394393 -455.99608696418755) rotate(480.6585091399041)"><path class="b-outline" fill="#A5ABB6" stroke="none" d="M 25 0.5 L 87.55268366369023 0.5 L 87.55268366369023 -0.5 L 25 -0.5 Z M 150.60346491369023 0.5 L 213.15614857738046 0.5 L 213.15614857738046 3.5 L 220.15614857738046 0 L 213.15614857738046 -3.5 L 213.15614857738046 -0.5 L 150.60346491369023 -0.5 Z"/><text text-anchor="middle" pointer-events="none" font-size="8px" fill="#000000" x="119.07807428869023" y="3" transform="rotate(180 119.07807428869023 0)" font-family="Helvetica Neue, Helvetica, Arial, sans-serif">WAS_USED_IN</text></g><g class="relationship" transform="translate(-640.8176484599954 -436.8462699307317) rotate(375.7026159313118)"><path class="b-outline" fill="#A5ABB6" stroke="none" d="M 25 0.5 L 139.79050073431296 0.5 L 139.79050073431296 -0.5 L 25 -0.5 Z M 202.84128198431296 0.5 L 317.6317827186259 0.5 L 317.6317827186259 3.5 L 324.6317827186259 0 L 317.6317827186259 -3.5 L 317.6317827186259 -0.5 L 202.84128198431296 -0.5 Z"/><text text-anchor="middle" pointer-events="none" font-size="8px" fill="#000000" x="171.31589135931296" y="3" font-family="Helvetica Neue, Helvetica, Arial, sans-serif">WAS_USED_IN</text></g><g class="relationship" transform="translate(-640.8176484599954 -436.8462699307317) rotate(401.8694190432402)"><path class="b-outline" fill="#A5ABB6" stroke="none" d="M 25 0.5 L 116.52167807992345 0.5 L 116.52167807992345 -0.5 L 25 -0.5 Z M 179.57245932992345 0.5 L 271.0941374098469 0.5 L 271.0941374098469 3.5 L 278.0941374098469 0 L 271.0941374098469 -3.5 L 271.0941374098469 -0.5 L 179.57245932992345 -0.5 Z"/><text text-anchor="middle" pointer-events="none" font-size="8px" fill="#000000" x="148.04706870492345" y="3" font-family="Helvetica Neue, Helvetica, Arial, sans-serif">WAS_USED_IN</text></g><g class="relationship" transform="translate(-640.8176484599954 -436.8462699307317) rotate(391.95584778007844)"><path class="b-outline" fill="#A5ABB6" stroke="none" d="M 25 0.5 L 140.20790780297978 0.5 L 140.20790780297978 -0.5 L 25 -0.5 Z M 203.25868905297978 0.5 L 318.46659685595955 0.5 L 318.46659685595955 3.5 L 325.46659685595955 0 L 318.46659685595955 -3.5 L 318.46659685595955 -0.5 L 203.25868905297978 -0.5 Z"/><text text-anchor="middle" pointer-events="none" font-size="8px" fill="#000000" x="171.73329842797978" y="3" font-family="Helvetica Neue, Helvetica, Arial, sans-serif">WAS_USED_IN</text></g><g class="relationship" transform="translate(-322.5833081368536 655.9145172451152) rotate(341.33581066419856)"><path class="b-outline" fill="#A5ABB6" stroke="none" d="M 25 0.5 L 237.10211510433885 0.5 L 237.10211510433885 -0.5 L 25 -0.5 Z M 301.05133385433885 0.5 L 513.1534489586777 0.5 L 513.1534489586777 3.5 L 520.1534489586777 0 L 513.1534489586777 -3.5 L 513.1534489586777 -0.5 L 301.05133385433885 -0.5 Z"/><text text-anchor="middle" pointer-events="none" font-size="8px" fill="#000000" x="269.07672447933885" y="3" font-family="Helvetica Neue, Helvetica, Arial, sans-serif">IS_A_PART_OF</text></g><g class="relationship" transform="translate(-322.5833081368536 655.9145172451152) rotate(186.77217175516824)"><path class="b-outline" fill="#A5ABB6" stroke="none" d="M 25 0.5 L 158.3229220565935 0.5 L 158.3229220565935 -0.5 L 25 -0.5 Z M 216.3307345565935 0.5 L 349.653656613187 0.5 L 349.653656613187 3.5 L 356.653656613187 0 L 349.653656613187 -3.5 L 349.653656613187 -0.5 L 216.3307345565935 -0.5 Z"/><text text-anchor="middle" pointer-events="none" font-size="8px" fill="#000000" x="187.3268283065935" y="3" transform="rotate(180 187.3268283065935 0)" font-family="Helvetica Neue, Helvetica, Arial, sans-serif">IMPLEMENTS</text></g><g class="relationship" transform="translate(512.1268532974005 143.3705604225126) rotate(493.2669803056545)"><path class="b-outline" fill="#A5ABB6" stroke="none" d="M 25 0.5 L 196.67203309152322 0.5 L 196.67203309152322 -0.5 L 25 -0.5 Z M 260.6212518415232 0.5 L 432.29328493304644 0.5 L 432.29328493304644 3.5 L 439.29328493304644 0 L 432.29328493304644 -3.5 L 432.29328493304644 -0.5 L 260.6212518415232 -0.5 Z"/><text text-anchor="middle" pointer-events="none" font-size="8px" fill="#000000" x="228.64664246652322" y="3" transform="rotate(180 228.64664246652322 0)" font-family="Helvetica Neue, Helvetica, Arial, sans-serif">IS_A_PART_OF</text></g><g class="relationship" transform="translate(512.1268532974005 143.3705604225126) rotate(346.4309335886617)"><path class="b-outline" fill="#A5ABB6" stroke="none" d="M 25 0.5 L 132.97799409461476 0.5 L 132.97799409461476 -0.5 L 25 -0.5 Z M 190.98580659461476 0.5 L 298.9638006892295 0.5 L 298.9638006892295 3.5 L 305.9638006892295 0 L 298.9638006892295 -3.5 L 298.9638006892295 -0.5 L 190.98580659461476 -0.5 Z"/><text text-anchor="middle" pointer-events="none" font-size="8px" fill="#000000" x="161.98190034461476" y="3" font-family="Helvetica Neue, Helvetica, Arial, sans-serif">IMPLEMENTS</text></g><g class="relationship" transform="translate(96.0511050158174 271.9994273459182) rotate(424.9597039430838)"><path class="b-outline" fill="#A5ABB6" stroke="none" d="M 25 0.5 L 80.11711164279774 0.5 L 80.11711164279774 -0.5 L 25 -0.5 Z M 144.06633039279774 0.5 L 199.18344203559548 0.5 L 199.18344203559548 3.5 L 206.18344203559548 0 L 199.18344203559548 -3.5 L 199.18344203559548 -0.5 L 144.06633039279774 -0.5 Z"/><text text-anchor="middle" pointer-events="none" font-size="8px" fill="#000000" x="112.09172101779774" y="3" font-family="Helvetica Neue, Helvetica, Arial, sans-serif">IS_A_PART_OF</text></g><g class="relationship" transform="translate(96.0511050158174 271.9994273459182) rotate(185.57377259056778)"><path class="b-outline" fill="#A5ABB6" stroke="none" d="M 25 0.5 L 365.06231421183395 0.5 L 365.06231421183395 -0.5 L 25 -0.5 Z M 423.07012671183395 0.5 L 763.1324409236679 0.5 L 763.1324409236679 3.5 L 770.1324409236679 0 L 763.1324409236679 -3.5 L 763.1324409236679 -0.5 L 423.07012671183395 -0.5 Z"/><text text-anchor="middle" pointer-events="none" font-size="8px" fill="#000000" x="394.06622046183395" y="3" transform="rotate(180 394.06622046183395 0)" font-family="Helvetica Neue, Helvetica, Arial, sans-serif">IMPLEMENTS</text></g><g class="relationship" transform="translate(-345.5950433741344 500.9418710274094) rotate(357.93124141959436)"><path class="b-outline" fill="#A5ABB6" stroke="none" d="M 25 0.5 L 234.4492331124514 0.5 L 234.4492331124514 -0.5 L 25 -0.5 Z M 298.3984518624514 0.5 L 507.8476849749028 0.5 L 507.8476849749028 3.5 L 514.8476849749028 0 L 507.8476849749028 -3.5 L 507.8476849749028 -0.5 L 298.3984518624514 -0.5 Z"/><text text-anchor="middle" pointer-events="none" font-size="8px" fill="#000000" x="266.4238424874514" y="3" font-family="Helvetica Neue, Helvetica, Arial, sans-serif">IS_A_PART_OF</text></g><g class="relationship" transform="translate(-345.5950433741344 500.9418710274094) rotate(522.8332779400464)"><path class="b-outline" fill="#A5ABB6" stroke="none" d="M 25 0.5 L 153.7848077338067 0.5 L 153.7848077338067 -0.5 L 25 -0.5 Z M 211.7926202338067 0.5 L 340.5774279676134 0.5 L 340.5774279676134 3.5 L 347.5774279676134 0 L 340.5774279676134 -3.5 L 340.5774279676134 -0.5 L 211.7926202338067 -0.5 Z"/><text text-anchor="middle" pointer-events="none" font-size="8px" fill="#000000" x="182.7887139838067" y="3" transform="rotate(180 182.7887139838067 0)" font-family="Helvetica Neue, Helvetica, Arial, sans-serif">IMPLEMENTS</text></g><g class="relationship" transform="translate(622.1572551381751 325.98036627081177) rotate(520.0471464604329)"><path class="b-outline" fill="#A5ABB6" stroke="none" d="M 25 0.5 L 192.32775104841227 0.5 L 192.32775104841227 -0.5 L 25 -0.5 Z M 256.27696979841227 0.5 L 423.60472084682453 0.5 L 423.60472084682453 3.5 L 430.60472084682453 0 L 423.60472084682453 -3.5 L 423.60472084682453 -0.5 L 256.27696979841227 -0.5 Z"/><text text-anchor="middle" pointer-events="none" font-size="8px" fill="#000000" x="224.30236042341227" y="3" transform="rotate(180 224.30236042341227 0)" font-family="Helvetica Neue, Helvetica, Arial, sans-serif">IS_A_PART_OF</text></g><g class="relationship" transform="translate(622.1572551381751 325.98036627081177) rotate(309.1249430376903)"><path class="b-outline" fill="#A5ABB6" stroke="none" d="M 25 0.5 L 135.23849882115783 0.5 L 135.23849882115783 -0.5 L 25 -0.5 Z M 193.24631132115783 0.5 L 303.48481014231567 0.5 L 303.48481014231567 3.5 L 310.48481014231567 0 L 303.48481014231567 -3.5 L 303.48481014231567 -0.5 L 193.24631132115783 -0.5 Z"/><text text-anchor="middle" pointer-events="none" font-size="8px" fill="#000000" x="164.24240507115783" y="3" font-family="Helvetica Neue, Helvetica, Arial, sans-serif">IMPLEMENTS</text></g><g class="relationship" transform="translate(-295.82128474856785 283.42460041843503) rotate(382.01698125658345)"><path class="b-outline" fill="#A5ABB6" stroke="none" d="M 25 0.5 L 228.64816160998208 0.5 L 228.64816160998208 -0.5 L 25 -0.5 Z M 292.5973803599821 0.5 L 496.24554196996417 0.5 L 496.24554196996417 3.5 L 503.24554196996417 0 L 496.24554196996417 -3.5 L 496.24554196996417 -0.5 L 292.5973803599821 -0.5 Z"/><text text-anchor="middle" pointer-events="none" font-size="8px" fill="#000000" x="260.6227709849821" y="3" font-family="Helvetica Neue, Helvetica, Arial, sans-serif">IS_A_PART_OF</text></g><g class="relationship" transform="translate(-295.82128474856785 283.42460041843503) rotate(192.51190558034227)"><path class="b-outline" fill="#A5ABB6" stroke="none" d="M 25 0.5 L 172.10568295690328 0.5 L 172.10568295690328 -0.5 L 25 -0.5 Z M 230.11349545690328 0.5 L 377.21917841380656 0.5 L 377.21917841380656 3.5 L 384.21917841380656 0 L 377.21917841380656 -3.5 L 377.21917841380656 -0.5 L 230.11349545690328 -0.5 Z"/><text text-anchor="middle" pointer-events="none" font-size="8px" fill="#000000" x="201.10958920690328" y="3" transform="rotate(180 201.10958920690328 0)" font-family="Helvetica Neue, Helvetica, Arial, sans-serif">IMPLEMENTS</text></g><g class="relationship" transform="translate(-244.92044519366863 557.6705955166434) rotate(350.1468866350815)"><path class="b-outline" fill="#A5ABB6" stroke="none" d="M 25 0.5 L 187.22083132116595 0.5 L 187.22083132116595 -0.5 L 25 -0.5 Z M 251.17005007116595 0.5 L 413.3908813923319 0.5 L 413.3908813923319 3.5 L 420.3908813923319 0 L 413.3908813923319 -3.5 L 413.3908813923319 -0.5 L 251.17005007116595 -0.5 Z"/><text text-anchor="middle" pointer-events="none" font-size="8px" fill="#000000" x="219.19544069616595" y="3" font-family="Helvetica Neue, Helvetica, Arial, sans-serif">IS_A_PART_OF</text></g><g class="relationship" transform="translate(-244.92044519366863 557.6705955166434) rotate(533.3502268440664)"><path class="b-outline" fill="#A5ABB6" stroke="none" d="M 25 0.5 L 197.36939798037986 0.5 L 197.36939798037986 -0.5 L 25 -0.5 Z M 255.37721048037986 0.5 L 427.7466084607597 0.5 L 427.7466084607597 3.5 L 434.7466084607597 0 L 427.7466084607597 -3.5 L 427.7466084607597 -0.5 L 255.37721048037986 -0.5 Z"/><text text-anchor="middle" pointer-events="none" font-size="8px" fill="#000000" x="226.37330423037986" y="3" transform="rotate(180 226.37330423037986 0)" font-family="Helvetica Neue, Helvetica, Arial, sans-serif">IMPLEMENTS</text></g><g class="relationship" transform="translate(511.1522436751842 263.3960887120892) rotate(505.4979100967227)"><path class="b-outline" fill="#A5ABB6" stroke="none" d="M 25 0.5 L 157.00769422356268 0.5 L 157.00769422356268 -0.5 L 25 -0.5 Z M 220.95691297356268 0.5 L 352.96460719712536 0.5 L 352.96460719712536 3.5 L 359.96460719712536 0 L 352.96460719712536 -3.5 L 352.96460719712536 -0.5 L 220.95691297356268 -0.5 Z"/><text text-anchor="middle" pointer-events="none" font-size="8px" fill="#000000" x="188.98230359856268" y="3" transform="rotate(180 188.98230359856268 0)" font-family="Helvetica Neue, Helvetica, Arial, sans-serif">IS_A_PART_OF</text></g><g class="relationship" transform="translate(511.1522436751842 263.3960887120892) rotate(328.50977778073036)"><path class="b-outline" fill="#A5ABB6" stroke="none" d="M 25 0.5 L 156.71234263891566 0.5 L 156.71234263891566 -0.5 L 25 -0.5 Z M 214.72015513891566 0.5 L 346.4324977778313 0.5 L 346.4324977778313 3.5 L 353.4324977778313 0 L 346.4324977778313 -3.5 L 346.4324977778313 -0.5 L 214.72015513891566 -0.5 Z"/><text text-anchor="middle" pointer-events="none" font-size="8px" fill="#000000" x="185.71624888891566" y="3" font-family="Helvetica Neue, Helvetica, Arial, sans-serif">IMPLEMENTS</text></g><g class="relationship" transform="translate(-267.49341085192395 439.76440132706654) rotate(365.16298257052915)"><path class="b-outline" fill="#A5ABB6" stroke="none" d="M 25 0.5 L 196.16229714400592 0.5 L 196.16229714400592 -0.5 L 25 -0.5 Z M 260.11151589400595 0.5 L 431.27381303801184 0.5 L 431.27381303801184 3.5 L 438.27381303801184 0 L 431.27381303801184 -3.5 L 431.27381303801184 -0.5 L 260.11151589400595 -0.5 Z"/><text text-anchor="middle" pointer-events="none" font-size="8px" fill="#000000" x="228.13690651900592" y="3" font-family="Helvetica Neue, Helvetica, Arial, sans-serif">IS_A_PART_OF</text></g><g class="relationship" transform="translate(-267.49341085192395 439.76440132706654) rotate(209.7974140741373)"><path class="b-outline" fill="#A5ABB6" stroke="none" d="M 25 0.5 L 214.00132822451585 0.5 L 214.00132822451585 -0.5 L 25 -0.5 Z M 272.0091407245159 0.5 L 461.0104689490317 0.5 L 461.0104689490317 3.5 L 468.0104689490317 0 L 461.0104689490317 -3.5 L 461.0104689490317 -0.5 L 272.0091407245159 -0.5 Z"/><text text-anchor="middle" pointer-events="none" font-size="8px" fill="#000000" x="243.00523447451585" y="3" transform="rotate(180 243.00523447451585 0)" font-family="Helvetica Neue, Helvetica, Arial, sans-serif">IMPLEMENTS</text></g><g class="relationship" transform="translate(-58.92869848917822 -173.87940813335874) rotate(261.35933231092486)"><path class="b-outline" fill="#A5ABB6" stroke="none" d="M 25 0.5 L 48.84276559892592 0.5 L 48.84276559892592 -0.5 L 25 -0.5 Z M 112.79198434892592 0.5 L 136.63474994785184 0.5 L 136.63474994785184 3.5 L 143.63474994785184 0 L 136.63474994785184 -3.5 L 136.63474994785184 -0.5 L 112.79198434892592 -0.5 Z"/><text text-anchor="middle" pointer-events="none" font-size="8px" fill="#000000" x="80.81737497392592" y="3" transform="rotate(180 80.81737497392592 0)" font-family="Helvetica Neue, Helvetica, Arial, sans-serif">IS_A_PART_OF</text></g><g class="relationship" transform="translate(-58.92869848917822 -173.87940813335874) rotate(375.0227549690543)"><path class="b-outline" fill="#A5ABB6" stroke="none" d="M 25 0.5 L 429.68298761969663 0.5 L 429.68298761969663 -0.5 L 25 -0.5 Z M 487.69080011969663 0.5 L 892.3737877393933 0.5 L 892.3737877393933 3.5 L 899.3737877393933 0 L 892.3737877393933 -3.5 L 892.3737877393933 -0.5 L 487.69080011969663 -0.5 Z"/><text text-anchor="middle" pointer-events="none" font-size="8px" fill="#000000" x="458.68689386969663" y="3" font-family="Helvetica Neue, Helvetica, Arial, sans-serif">IMPLEMENTS</text></g><g class="relationship" transform="translate(-58.92869848917822 -173.87940813335874) rotate(509.91715287271205)"><path class="b-outline" fill="#A5ABB6" stroke="none" d="M 25 0.5 L 335.2252654096185 0.5 L 335.2252654096185 -0.5 L 25 -0.5 Z M 393.2330779096185 0.5 L 703.458343319237 0.5 L 703.458343319237 3.5 L 710.458343319237 0 L 703.458343319237 -3.5 L 703.458343319237 -0.5 L 393.2330779096185 -0.5 Z"/><text text-anchor="middle" pointer-events="none" font-size="8px" fill="#000000" x="364.2291716596185" y="3" transform="rotate(180 364.2291716596185 0)" font-family="Helvetica Neue, Helvetica, Arial, sans-serif">IMPLEMENTS</text></g><g class="relationship" transform="translate(-58.92869848917822 -173.87940813335874) rotate(317.6844749361539)"><path class="b-outline" fill="#A5ABB6" stroke="none" d="M 25 0.5 L 177.02615331182972 0.5 L 177.02615331182972 -0.5 L 25 -0.5 Z M 235.03396581182972 0.5 L 387.06011912365943 0.5 L 387.06011912365943 3.5 L 394.06011912365943 0 L 387.06011912365943 -3.5 L 387.06011912365943 -0.5 L 235.03396581182972 -0.5 Z"/><text text-anchor="middle" pointer-events="none" font-size="8px" fill="#000000" x="206.03005956182972" y="3" font-family="Helvetica Neue, Helvetica, Arial, sans-serif">IMPLEMENTS</text></g><g class="relationship" transform="translate(-58.92869848917822 -173.87940813335874) rotate(204.31913012437786)"><path class="b-outline" fill="#A5ABB6" stroke="none" d="M 25 0.5 L 286.7711791002739 0.5 L 286.7711791002739 -0.5 L 25 -0.5 Z M 344.7789916002739 0.5 L 606.5501707005478 0.5 L 606.5501707005478 3.5 L 613.5501707005478 0 L 606.5501707005478 -3.5 L 606.5501707005478 -0.5 L 344.7789916002739 -0.5 Z"/><text text-anchor="middle" pointer-events="none" font-size="8px" fill="#000000" x="315.7750853502739" y="3" transform="rotate(180 315.7750853502739 0)" font-family="Helvetica Neue, Helvetica, Arial, sans-serif">IMPLEMENTS</text></g><g class="relationship" transform="translate(-502.01098696540214 752.6510219421948) rotate(331.669150461046)"><path class="b-outline" fill="#A5ABB6" stroke="none" d="M 25 0.5 L 56.228477429986086 0.5 L 56.228477429986086 -0.5 L 25 -0.5 Z M 140.61519617998607 0.5 L 171.84367360997217 0.5 L 171.84367360997217 3.5 L 178.84367360997217 0 L 171.84367360997217 -3.5 L 171.84367360997217 -0.5 L 140.61519617998607 -0.5 Z"/><text text-anchor="middle" pointer-events="none" font-size="8px" fill="#000000" x="98.42183680498609" y="3" font-family="Helvetica Neue, Helvetica, Arial, sans-serif">WAS_EXECUTED_IN</text></g><g class="relationship" transform="translate(-503.47339384514555 829.4773166846884) rotate(316.18425553764285)"><path class="b-outline" fill="#A5ABB6" stroke="none" d="M 25 0.5 L 79.65143355320136 0.5 L 79.65143355320136 -0.5 L 25 -0.5 Z M 164.03815230320134 0.5 L 218.68958585640272 0.5 L 218.68958585640272 3.5 L 225.68958585640272 0 L 218.68958585640272 -3.5 L 218.68958585640272 -0.5 L 164.03815230320134 -0.5 Z"/><text text-anchor="middle" pointer-events="none" font-size="8px" fill="#000000" x="121.84479292820136" y="3" font-family="Helvetica Neue, Helvetica, Arial, sans-serif">WAS_EXECUTED_IN</text></g><g class="relationship" transform="translate(-536.5187875480528 669.522181388642) rotate(356.36052502020084)"><path class="b-outline" fill="#A5ABB6" stroke="none" d="M 25 0.5 L 61.49054552021117 0.5 L 61.49054552021117 -0.5 L 25 -0.5 Z M 145.87726427021119 0.5 L 182.36780979042234 0.5 L 182.36780979042234 3.5 L 189.36780979042234 0 L 182.36780979042234 -3.5 L 182.36780979042234 -0.5 L 145.87726427021119 -0.5 Z"/><text text-anchor="middle" pointer-events="none" font-size="8px" fill="#000000" x="103.68390489521117" y="3" font-family="Helvetica Neue, Helvetica, Arial, sans-serif">WAS_EXECUTED_IN</text></g><g class="relationship" transform="translate(654.7174639329846 64.07820043438535) rotate(510.9222635282605)"><path class="b-outline" fill="#A5ABB6" stroke="none" d="M 25 0.5 L 35.883844232863865 0.5 L 35.883844232863865 -0.5 L 25 -0.5 Z M 120.27056298286386 0.5 L 131.15440721572773 0.5 L 131.15440721572773 3.5 L 138.15440721572773 0 L 131.15440721572773 -3.5 L 131.15440721572773 -0.5 L 120.27056298286386 -0.5 Z"/><text text-anchor="middle" pointer-events="none" font-size="8px" fill="#000000" x="78.07720360786386" y="3" transform="rotate(180 78.07720360786386 0)" font-family="Helvetica Neue, Helvetica, Arial, sans-serif">WAS_EXECUTED_IN</text></g><g class="relationship" transform="translate(627.6159235590007 165.34143221458427) rotate(190.7713490075389)"><path class="b-outline" fill="#A5ABB6" stroke="none" d="M 25 0.5 L 26.200115301851874 0.5 L 26.200115301851874 -0.5 L 25 -0.5 Z M 84.36027155185187 0.5 L 85.56038685370375 0.5 L 85.56038685370375 3.5 L 92.56038685370375 0 L 85.56038685370375 -3.5 L 85.56038685370375 -0.5 L 84.36027155185187 -0.5 Z"/><text text-anchor="middle" pointer-events="none" font-size="8px" fill="#000000" x="55.28019342685187" y="3" transform="rotate(180 55.28019342685187 0)" font-family="Helvetica Neue, Helvetica, Arial, sans-serif">WAS_EXEC…</text></g><g class="relationship" transform="translate(711.7876338575991 -66.8285402652223) rotate(493.5271350339531)"><path class="b-outline" fill="#A5ABB6" stroke="none" d="M 25 0.5 L 99.26188304817029 0.5 L 99.26188304817029 -0.5 L 25 -0.5 Z M 183.6486017981703 0.5 L 257.9104848463406 0.5 L 257.9104848463406 3.5 L 264.9104848463406 0 L 257.9104848463406 -3.5 L 257.9104848463406 -0.5 L 183.6486017981703 -0.5 Z"/><text text-anchor="middle" pointer-events="none" font-size="8px" fill="#000000" x="141.4552424231703" y="3" transform="rotate(180 141.4552424231703 0)" font-family="Helvetica Neue, Helvetica, Arial, sans-serif">WAS_EXECUTED_IN</text></g><g class="relationship" transform="translate(-135.02136250384768 120.36289619397346) rotate(393.27406028268626)"><path class="b-outline" fill="#A5ABB6" stroke="none" d="M 25 0.5 L 92.49864729092604 0.5 L 92.49864729092604 -0.5 L 25 -0.5 Z M 176.88536604092604 0.5 L 244.3840133318521 0.5 L 244.3840133318521 3.5 L 251.3840133318521 0 L 244.3840133318521 -3.5 L 244.3840133318521 -0.5 L 176.88536604092604 -0.5 Z"/><text text-anchor="middle" pointer-events="none" font-size="8px" fill="#000000" x="134.69200666592604" y="3" font-family="Helvetica Neue, Helvetica, Arial, sans-serif">WAS_EXECUTED_IN</text></g><g class="relationship" transform="translate(-65.98111891905694 49.23662146993075) rotate(413.96877264558384)"><path class="b-outline" fill="#A5ABB6" stroke="none" d="M 25 0.5 L 92.03618472776697 0.5 L 92.03618472776697 -0.5 L 25 -0.5 Z M 176.42290347776697 0.5 L 243.45908820553393 0.5 L 243.45908820553393 3.5 L 250.45908820553393 0 L 243.45908820553393 -3.5 L 243.45908820553393 -0.5 L 176.42290347776697 -0.5 Z"/><text text-anchor="middle" pointer-events="none" font-size="8px" fill="#000000" x="134.22954410276697" y="3" font-family="Helvetica Neue, Helvetica, Arial, sans-serif">WAS_EXECUTED_IN</text></g><g class="relationship" transform="translate(-319.8607484640337 187.82462307143956) rotate(371.4413306817608)"><path class="b-outline" fill="#A5ABB6" stroke="none" d="M 25 0.5 L 166.4787803722415 0.5 L 166.4787803722415 -0.5 L 25 -0.5 Z M 250.8654991222415 0.5 L 392.344279494483 0.5 L 392.344279494483 3.5 L 399.344279494483 0 L 392.344279494483 -3.5 L 392.344279494483 -0.5 L 250.8654991222415 -0.5 Z"/><text text-anchor="middle" pointer-events="none" font-size="8px" fill="#000000" x="208.6721397472415" y="3" font-family="Helvetica Neue, Helvetica, Arial, sans-serif">WAS_EXECUTED_IN</text></g><g class="relationship" transform="translate(-595.2734850709056 428.26539360178106) rotate(376.22923781023877)"><path class="b-outline" fill="#A5ABB6" stroke="none" d="M 25 0.5 L 84.32701846932665 0.5 L 84.32701846932665 -0.5 L 25 -0.5 Z M 168.71373721932665 0.5 L 228.0407556886533 0.5 L 228.0407556886533 3.5 L 235.0407556886533 0 L 228.0407556886533 -3.5 L 228.0407556886533 -0.5 L 168.71373721932665 -0.5 Z"/><text text-anchor="middle" pointer-events="none" font-size="8px" fill="#000000" x="126.52037784432665" y="3" font-family="Helvetica Neue, Helvetica, Arial, sans-serif">WAS_EXECUTED_IN</text></g><g class="relationship" transform="translate(-498.0197583325561 418.42618572416796) rotate(388.42906340821605)"><path class="b-outline" fill="#A5ABB6" stroke="none" d="M 25 0.5 L 40.96997204495477 0.5 L 40.96997204495477 -0.5 L 25 -0.5 Z M 125.35669079495477 0.5 L 141.32666283990955 0.5 L 141.32666283990955 3.5 L 148.32666283990955 0 L 141.32666283990955 -3.5 L 141.32666283990955 -0.5 L 125.35669079495477 -0.5 Z"/><text text-anchor="middle" pointer-events="none" font-size="8px" fill="#000000" x="83.16333141995477" y="3" font-family="Helvetica Neue, Helvetica, Arial, sans-serif">WAS_EXECUTED_IN</text></g><g class="relationship" transform="translate(-520.420335176659 511.8086158432302) rotate(356.44319986126186)"><path class="b-outline" fill="#A5ABB6" stroke="none" d="M 25 0.5 L 41.88798680774896 0.5 L 41.88798680774896 -0.5 L 25 -0.5 Z M 126.27470555774896 0.5 L 143.16269236549792 0.5 L 143.16269236549792 3.5 L 150.16269236549792 0 L 143.16269236549792 -3.5 L 143.16269236549792 -0.5 L 126.27470555774896 -0.5 Z"/><text text-anchor="middle" pointer-events="none" font-size="8px" fill="#000000" x="84.08134618274896" y="3" font-family="Helvetica Neue, Helvetica, Arial, sans-serif">WAS_EXECUTED_IN</text></g><g class="relationship" transform="translate(866.4149362191214 397.3560716774067) rotate(196.28914309107608)"><path class="b-outline" fill="#A5ABB6" stroke="none" d="M 25 0.5 L 81.54294252949806 0.5 L 81.54294252949806 -0.5 L 25 -0.5 Z M 165.92966127949808 0.5 L 222.47260380899613 0.5 L 222.47260380899613 3.5 L 229.47260380899613 0 L 222.47260380899613 -3.5 L 222.47260380899613 -0.5 L 165.92966127949808 -0.5 Z"/><text text-anchor="middle" pointer-events="none" font-size="8px" fill="#000000" x="123.73630190449806" y="3" transform="rotate(180 123.73630190449806 0)" font-family="Helvetica Neue, Helvetica, Arial, sans-serif">WAS_EXECUTED_IN</text></g><g class="relationship" transform="translate(765.4253863054735 247.86394930111288) rotate(511.39873726890977)"><path class="b-outline" fill="#A5ABB6" stroke="none" d="M 25 0.5 L 35.896977075394176 0.5 L 35.896977075394176 -0.5 L 25 -0.5 Z M 120.28369582539418 0.5 L 131.18067290078835 0.5 L 131.18067290078835 3.5 L 138.18067290078835 0 L 131.18067290078835 -3.5 L 131.18067290078835 -0.5 L 120.28369582539418 -0.5 Z"/><text text-anchor="middle" pointer-events="none" font-size="8px" fill="#000000" x="78.09033645039418" y="3" transform="rotate(180 78.09033645039418 0)" font-family="Helvetica Neue, Helvetica, Arial, sans-serif">WAS_EXECUTED_IN</text></g><g class="relationship" transform="translate(817.4687788875735 300.95619160047) rotate(532.6987902721299)"><path class="b-outline" fill="#A5ABB6" stroke="none" d="M 25 0.5 L 52.76069161738377 0.5 L 52.76069161738377 -0.5 L 25 -0.5 Z M 137.14741036738377 0.5 L 164.90810198476754 0.5 L 164.90810198476754 3.5 L 171.90810198476754 0 L 164.90810198476754 -3.5 L 164.90810198476754 -0.5 L 137.14741036738377 -0.5 Z"/><text text-anchor="middle" pointer-events="none" font-size="8px" fill="#000000" x="94.95405099238377" y="3" transform="rotate(180 94.95405099238377 0)" font-family="Helvetica Neue, Helvetica, Arial, sans-serif">WAS_EXECUTED_IN</text></g><g class="relationship" transform="translate(-551.2511610958276 317.99301239237667) rotate(352.292744460667)"><path class="b-outline" fill="#A5ABB6" stroke="none" d="M 25 0.5 L 83.18584456921334 0.5 L 83.18584456921334 -0.5 L 25 -0.5 Z M 167.57256331921334 0.5 L 225.7584078884267 0.5 L 225.7584078884267 3.5 L 232.7584078884267 0 L 225.7584078884267 -3.5 L 225.7584078884267 -0.5 L 167.57256331921334 -0.5 Z"/><text text-anchor="middle" pointer-events="none" font-size="8px" fill="#000000" x="125.37920394421334" y="3" font-family="Helvetica Neue, Helvetica, Arial, sans-serif">WAS_EXECUTED_IN</text></g><g class="relationship" transform="translate(-497.84862091695214 175.68251985631977) rotate(388.07119920697386)"><path class="b-outline" fill="#A5ABB6" stroke="none" d="M 25 0.5 L 68.78742556634582 0.5 L 68.78742556634582 -0.5 L 25 -0.5 Z M 153.1741443163458 0.5 L 196.96156988269163 0.5 L 196.96156988269163 3.5 L 203.96156988269163 0 L 196.96156988269163 -3.5 L 196.96156988269163 -0.5 L 153.1741443163458 -0.5 Z"/><text text-anchor="middle" pointer-events="none" font-size="8px" fill="#000000" x="110.98078494134582" y="3" font-family="Helvetica Neue, Helvetica, Arial, sans-serif">WAS_EXECUTED_IN</text></g><g class="relationship" transform="translate(-201.94549639026417 36.68328841690534) rotate(470.8299373898624)"><path class="b-outline" fill="#A5ABB6" stroke="none" d="M 25 0.5 L 86.3046886106892 0.5 L 86.3046886106892 -0.5 L 25 -0.5 Z M 170.6914073606892 0.5 L 231.9960959713784 0.5 L 231.9960959713784 3.5 L 238.9960959713784 0 L 231.9960959713784 -3.5 L 231.9960959713784 -0.5 L 170.6914073606892 -0.5 Z"/><text text-anchor="middle" pointer-events="none" font-size="8px" fill="#000000" x="128.4980479856892" y="3" transform="rotate(180 128.4980479856892 0)" font-family="Helvetica Neue, Helvetica, Arial, sans-serif">WAS_EXECUTED_IN</text></g><g class="relationship" transform="translate(-427.49773851895117 614.1425844039214) rotate(342.81292341493463)"><path class="b-outline" fill="#A5ABB6" stroke="none" d="M 25 0.5 L 49.86232277796137 0.5 L 49.86232277796137 -0.5 L 25 -0.5 Z M 134.24904152796137 0.5 L 159.11136430592273 0.5 L 159.11136430592273 3.5 L 166.11136430592273 0 L 159.11136430592273 -3.5 L 159.11136430592273 -0.5 L 134.24904152796137 -0.5 Z"/><text text-anchor="middle" pointer-events="none" font-size="8px" fill="#000000" x="92.05568215296137" y="3" font-family="Helvetica Neue, Helvetica, Arial, sans-serif">WAS_EXECUTED_IN</text></g><g class="relationship" transform="translate(681.0809378701163 205.626432617284) rotate(521.2238104217649)"><path class="b-outline" fill="#A5ABB6" stroke="none" d="M 25 0.5 L 44.046673882330026 0.5 L 44.046673882330026 -0.5 L 25 -0.5 Z M 128.43339263233003 0.5 L 147.48006651466005 0.5 L 147.48006651466005 3.5 L 154.48006651466005 0 L 147.48006651466005 -3.5 L 147.48006651466005 -0.5 L 128.43339263233003 -0.5 Z"/><text text-anchor="middle" pointer-events="none" font-size="8px" fill="#000000" x="86.24003325733003" y="3" transform="rotate(180 86.24003325733003 0)" font-family="Helvetica Neue, Helvetica, Arial, sans-serif">WAS_EXECUTED_IN</text></g><g class="relationship" transform="translate(-465.1707488912074 269.5887141034849) rotate(400.7243724998083)"><path class="b-outline" fill="#A5ABB6" stroke="none" d="M 25 0.5 L 84.72528815701077 0.5 L 84.72528815701077 -0.5 L 25 -0.5 Z M 169.11200690701077 0.5 L 228.83729506402153 0.5 L 228.83729506402153 3.5 L 235.83729506402153 0 L 228.83729506402153 -3.5 L 228.83729506402153 -0.5 L 169.11200690701077 -0.5 Z"/><text text-anchor="middle" pointer-events="none" font-size="8px" fill="#000000" x="126.91864753201077" y="3" font-family="Helvetica Neue, Helvetica, Arial, sans-serif">WAS_EXECUTED_IN</text></g><g class="relationship" transform="translate(369.94287255951696 -13.365881285064784) rotate(200.51933946237432)"><path class="b-outline" fill="#A5ABB6" stroke="none" d="M 25 0.5 L 183.2692012954369 0.5 L 183.2692012954369 -0.5 L 25 -0.5 Z M 267.6559200454369 0.5 L 425.9251213408738 0.5 L 425.9251213408738 3.5 L 432.9251213408738 0 L 425.9251213408738 -3.5 L 425.9251213408738 -0.5 L 267.6559200454369 -0.5 Z"/><text text-anchor="middle" pointer-events="none" font-size="8px" fill="#000000" x="225.4625606704369" y="3" transform="rotate(180 225.4625606704369 0)" font-family="Helvetica Neue, Helvetica, Arial, sans-serif">WAS_EXECUTED_IN</text></g><g class="relationship" transform="translate(370.7143019201312 -110.56797575436133) rotate(188.38267702719816)"><path class="b-outline" fill="#A5ABB6" stroke="none" d="M 25 0.5 L 171.44798011992103 0.5 L 171.44798011992103 -0.5 L 25 -0.5 Z M 255.83469886992103 0.5 L 402.28267898984205 0.5 L 402.28267898984205 3.5 L 409.28267898984205 0 L 402.28267898984205 -3.5 L 402.28267898984205 -0.5 L 255.83469886992103 -0.5 Z"/><text text-anchor="middle" pointer-events="none" font-size="8px" fill="#000000" x="213.64133949492103" y="3" transform="rotate(180 213.64133949492103 0)" font-family="Helvetica Neue, Helvetica, Arial, sans-serif">WAS_EXECUTED_IN</text></g><g class="relationship" transform="translate(466.720451751826 -135.90057741127941) rotate(184.13251321463116)"><path class="b-outline" fill="#A5ABB6" stroke="none" d="M 25 0.5 L 217.81632770125634 0.5 L 217.81632770125634 -0.5 L 25 -0.5 Z M 302.20304645125634 0.5 L 495.0193741525127 0.5 L 495.0193741525127 3.5 L 502.0193741525127 0 L 495.0193741525127 -3.5 L 495.0193741525127 -0.5 L 302.20304645125634 -0.5 Z"/><text text-anchor="middle" pointer-events="none" font-size="8px" fill="#000000" x="260.00968707625634" y="3" transform="rotate(180 260.00968707625634 0)" font-family="Helvetica Neue, Helvetica, Arial, sans-serif">WAS_EXECUTED_IN</text></g><g class="relationship" transform="translate(25.028568462099436 -362.07619703095344) rotate(474.0423305672922)"><path class="b-outline" fill="#A5ABB6" stroke="none" d="M 25 0.5 L 57.34407802676908 0.5 L 57.34407802676908 -0.5 L 25 -0.5 Z M 141.73079677676907 0.5 L 174.07487480353817 0.5 L 174.07487480353817 3.5 L 181.07487480353817 0 L 174.07487480353817 -3.5 L 174.07487480353817 -0.5 L 141.73079677676907 -0.5 Z"/><text text-anchor="middle" pointer-events="none" font-size="8px" fill="#000000" x="99.53743740176908" y="3" transform="rotate(180 99.53743740176908 0)" font-family="Helvetica Neue, Helvetica, Arial, sans-serif">WAS_EXECUTED_IN</text></g><g class="relationship" transform="translate(121.02404639058761 -342.9935093957171) rotate(496.77848191785546)"><path class="b-outline" fill="#A5ABB6" stroke="none" d="M 25 0.5 L 77.7798863460238 0.5 L 77.7798863460238 -0.5 L 25 -0.5 Z M 162.1666050960238 0.5 L 214.9464914420476 0.5 L 214.9464914420476 3.5 L 221.9464914420476 0 L 214.9464914420476 -3.5 L 214.9464914420476 -0.5 L 162.1666050960238 -0.5 Z"/><text text-anchor="middle" pointer-events="none" font-size="8px" fill="#000000" x="119.9732457210238" y="3" transform="rotate(180 119.9732457210238 0)" font-family="Helvetica Neue, Helvetica, Arial, sans-serif">WAS_EXECUTED_IN</text></g><g class="relationship" transform="translate(125.934711574666 -245.1074341327864) rotate(518.9282844968973)"><path class="b-outline" fill="#A5ABB6" stroke="none" d="M 25 0.5 L 53.36206963851767 0.5 L 53.36206963851767 -0.5 L 25 -0.5 Z M 137.74878838851765 0.5 L 166.11085802703533 0.5 L 166.11085802703533 3.5 L 173.11085802703533 0 L 166.11085802703533 -3.5 L 166.11085802703533 -0.5 L 137.74878838851765 -0.5 Z"/><text text-anchor="middle" pointer-events="none" font-size="8px" fill="#000000" x="95.55542901351767" y="3" transform="rotate(180 95.55542901351767 0)" font-family="Helvetica Neue, Helvetica, Arial, sans-serif">WAS_EXECUTED_IN</text></g><g class="relationship" transform="translate(-304.2343368950718 -342.22038624664674) rotate(394.4598590012149)"><path class="b-outline" fill="#A5ABB6" stroke="none" d="M 25 0.5 L 103.06276751214835 0.5 L 103.06276751214835 -0.5 L 25 -0.5 Z M 187.44948626214835 0.5 L 265.5122537742967 0.5 L 265.5122537742967 3.5 L 272.5122537742967 0 L 265.5122537742967 -3.5 L 265.5122537742967 -0.5 L 187.44948626214835 -0.5 Z"/><text text-anchor="middle" pointer-events="none" font-size="8px" fill="#000000" x="145.25612688714835" y="3" font-family="Helvetica Neue, Helvetica, Arial, sans-serif">WAS_EXECUTED_IN</text></g><g class="relationship" transform="translate(-415.11317727024624 -234.55057591532557) rotate(369.66677499375476)"><path class="b-outline" fill="#A5ABB6" stroke="none" d="M 25 0.5 L 134.9640328931886 0.5 L 134.9640328931886 -0.5 L 25 -0.5 Z M 219.3507516431886 0.5 L 329.3147845363772 0.5 L 329.3147845363772 3.5 L 336.3147845363772 0 L 329.3147845363772 -3.5 L 329.3147845363772 -0.5 L 219.3507516431886 -0.5 Z"/><text text-anchor="middle" pointer-events="none" font-size="8px" fill="#000000" x="177.1573922681886" y="3" font-family="Helvetica Neue, Helvetica, Arial, sans-serif">WAS_EXECUTED_IN</text></g><g class="relationship" transform="translate(-343.4620911291932 -251.3563563605171) rotate(375.23204995489823)"><path class="b-outline" fill="#A5ABB6" stroke="none" d="M 25 0.5 L 101.75318096575427 0.5 L 101.75318096575427 -0.5 L 25 -0.5 Z M 186.13989971575427 0.5 L 262.89308068150854 0.5 L 262.89308068150854 3.5 L 269.89308068150854 0 L 262.89308068150854 -3.5 L 262.89308068150854 -0.5 L 186.13989971575427 -0.5 Z"/><text text-anchor="middle" pointer-events="none" font-size="8px" fill="#000000" x="143.94654034075427" y="3" font-family="Helvetica Neue, Helvetica, Arial, sans-serif">WAS_EXECUTED_IN</text></g><g class="relationship" transform="translate(-370.6325271372313 43.67061285257642) rotate(325.08733866799)"><path class="b-outline" fill="#A5ABB6" stroke="none" d="M 25 0.5 L 144.36405854445118 0.5 L 144.36405854445118 -0.5 L 25 -0.5 Z M 228.75077729445118 0.5 L 348.11483583890237 0.5 L 348.11483583890237 3.5 L 355.11483583890237 0 L 348.11483583890237 -3.5 L 348.11483583890237 -0.5 L 228.75077729445118 -0.5 Z"/><text text-anchor="middle" pointer-events="none" font-size="8px" fill="#000000" x="186.55741791945118" y="3" font-family="Helvetica Neue, Helvetica, Arial, sans-serif">WAS_EXECUTED_IN</text></g><g class="relationship" transform="translate(-443.2454920763962 -66.56531326177648) rotate(344.3984900058765)"><path class="b-outline" fill="#A5ABB6" stroke="none" d="M 25 0.5 L 153.81585895291792 0.5 L 153.81585895291792 -0.5 L 25 -0.5 Z M 238.20257770291792 0.5 L 367.01843665583584 0.5 L 367.01843665583584 3.5 L 374.01843665583584 0 L 367.01843665583584 -3.5 L 367.01843665583584 -0.5 L 238.20257770291792 -0.5 Z"/><text text-anchor="middle" pointer-events="none" font-size="8px" fill="#000000" x="196.00921832791792" y="3" font-family="Helvetica Neue, Helvetica, Arial, sans-serif">WAS_EXECUTED_IN</text></g><g class="relationship" transform="translate(-346.6403247909226 -50.37064977806895) rotate(336.767134744249)"><path class="b-outline" fill="#A5ABB6" stroke="none" d="M 25 0.5 L 110.85726606263597 0.5 L 110.85726606263597 -0.5 L 25 -0.5 Z M 195.24398481263597 0.5 L 281.10125087527194 0.5 L 281.10125087527194 3.5 L 288.10125087527194 0 L 281.10125087527194 -3.5 L 281.10125087527194 -0.5 L 195.24398481263597 -0.5 Z"/><text text-anchor="middle" pointer-events="none" font-size="8px" fill="#000000" x="153.05062543763597" y="3" font-family="Helvetica Neue, Helvetica, Arial, sans-serif">WAS_EXECUTED_IN</text></g></g><g class="layer nodes"><g class="node" aria-label="graph-node0" transform="translate(257.05703733042265,679.0376346930942)"><circle class="b-outline" cx="0" cy="0" r="25" fill="#C990C0" stroke="#b261a5" stroke-width="2px"/><text class="caption" text-anchor="middle" pointer-events="none" x="0" y="5" font-size="10px" fill="#FFFFFF" font-family="Helvetica Neue, Helvetica, Arial, sans-serif"> 0</text></g><g class="node" aria-label="graph-node1" transform="translate(-89.81427072417893,-496.85545517224256)"><circle class="b-outline" cx="0" cy="0" r="25" fill="#C990C0" stroke="#b261a5" stroke-width="2px"/><text class="caption" text-anchor="middle" pointer-events="none" x="0" y="5" font-size="10px" fill="#FFFFFF" font-family="Helvetica Neue, Helvetica, Arial, sans-serif"> 1</text></g><g class="node" aria-label="graph-node2" transform="translate(56.86032288468042,757.1256612865405)"><circle class="b-outline" cx="0" cy="0" r="25" fill="#C990C0" stroke="#b261a5" stroke-width="2px"/><text class="caption" text-anchor="middle" pointer-events="none" x="0" y="5" font-size="10px" fill="#FFFFFF" font-family="Helvetica Neue, Helvetica, Arial, sans-serif"> 2</text></g><g class="node" aria-label="graph-node3" transform="translate(193.90078279443588,481.4540153358834)"><circle class="b-outline" cx="0" cy="0" r="25" fill="#F79767" stroke="#f36924" stroke-width="2px"/><text class="caption" text-anchor="middle" pointer-events="none" x="0" y="5" font-size="10px" fill="#FFFFFF" font-family="Helvetica Neue, Helvetica, Arial, sans-serif"> 3</text></g><g class="node" aria-label="graph-node4" transform="translate(-84.26389600702576,-340.6001526635646)"><circle class="b-outline" cx="0" cy="0" r="25" fill="#F79767" stroke="#f36924" stroke-width="2px"/><text class="caption" text-anchor="middle" pointer-events="none" x="0" y="5" font-size="10px" fill="#FFFFFF" font-family="Helvetica Neue, Helvetica, Arial, sans-serif"> 4</text></g><g class="node" aria-label="graph-node5" transform="translate(-701.5741286943747,610.9092782239383)"><circle class="b-outline" cx="0" cy="0" r="25" fill="#57C7E3" stroke="#23b3d7" stroke-width="2px"/><text class="caption" text-anchor="middle" pointer-events="none" x="0" y="0" font-size="10px" fill="#2A2C34" font-family="Helvetica Neue, Helvetica, Arial, sans-serif"> Back</text><text class="caption" text-anchor="middle" pointer-events="none" x="0" y="10" font-size="10px" fill="#2A2C34" font-family="Helvetica Neue, Helvetica, Arial, sans-serif"> Squat</text></g><g class="node" aria-label="graph-node6" transform="translate(833.852729661117,65.72071918211688)"><circle class="b-outline" cx="0" cy="0" r="25" fill="#57C7E3" stroke="#23b3d7" stroke-width="2px"/><text class="caption" text-anchor="middle" pointer-events="none" x="0" y="0" font-size="10px" fill="#2A2C34" font-family="Helvetica Neue, Helvetica, Arial, sans-serif"> Bench</text><text class="caption" text-anchor="middle" pointer-events="none" x="0" y="10" font-size="10px" fill="#2A2C34" font-family="Helvetica Neue, Helvetica, Arial, sans-serif"> Press</text></g><g class="node" aria-label="graph-node7" transform="translate(-695.321921688131,194.77034464605728)"><circle class="b-outline" cx="0" cy="0" r="25" fill="#57C7E3" stroke="#23b3d7" stroke-width="2px"/><text class="caption" text-anchor="middle" pointer-events="none" x="0" y="5" font-size="10px" fill="#2A2C34" font-family="Helvetica Neue, Helvetica, Arial, sans-serif"> Deadlift</text></g><g class="node" aria-label="graph-node8" transform="translate(250.9447643394393,-455.99608696418755)"><circle class="b-outline" cx="0" cy="0" r="25" fill="#57C7E3" stroke="#23b3d7" stroke-width="2px"/><text class="caption" text-anchor="middle" pointer-events="none" x="0" y="0" font-size="10px" fill="#2A2C34" font-family="Helvetica Neue, Helvetica, Arial, sans-serif"> Front</text><text class="caption" text-anchor="middle" pointer-events="none" x="0" y="10" font-size="10px" fill="#2A2C34" font-family="Helvetica Neue, Helvetica, Arial, sans-serif"> Squat</text></g><g class="node" aria-label="graph-node9" transform="translate(490.58572276362406,551.5385722978671)"><circle class="b-outline" cx="0" cy="0" r="25" fill="#57C7E3" stroke="#23b3d7" stroke-width="2px"/><text class="caption" text-anchor="middle" pointer-events="none" x="0" y="0" font-size="10px" fill="#2A2C34" font-family="Helvetica Neue, Helvetica, Arial, sans-serif"> Overhead</text><text class="caption" text-anchor="middle" pointer-events="none" x="0" y="10" font-size="10px" fill="#2A2C34" font-family="Helvetica Neue, Helvetica, Arial, sans-serif"> Press</text></g><g class="node" aria-label="graph-node10" transform="translate(-640.8176484599954,-436.8462699307317)"><circle class="b-outline" cx="0" cy="0" r="25" fill="#57C7E3" stroke="#23b3d7" stroke-width="2px"/><text class="caption" text-anchor="middle" pointer-events="none" x="0" y="5" font-size="10px" fill="#2A2C34" font-family="Helvetica Neue, Helvetica, Arial, sans-serif"> Pull-up</text></g><g class="node" aria-label="graph-node11" transform="translate(-322.5833081368536,655.9145172451152)"><circle class="b-outline" cx="0" cy="0" r="25" fill="#F16667" stroke="#eb2728" stroke-width="2px"/><text class="caption" text-anchor="middle" pointer-events="none" x="0" y="5" font-size="10px" fill="#FFFFFF" font-family="Helvetica Neue, Helvetica, Arial, sans-serif"> 1</text></g><g class="node" aria-label="graph-node12" transform="translate(512.1268532974005,143.3705604225126)"><circle class="b-outline" cx="0" cy="0" r="25" fill="#F16667" stroke="#eb2728" stroke-width="2px"/><text class="caption" text-anchor="middle" pointer-events="none" x="0" y="5" font-size="10px" fill="#FFFFFF" font-family="Helvetica Neue, Helvetica, Arial, sans-serif"> 1</text></g><g class="node" aria-label="graph-node13" transform="translate(96.0511050158174,271.9994273459182)"><circle class="b-outline" cx="0" cy="0" r="25" fill="#F16667" stroke="#eb2728" stroke-width="2px"/><text class="caption" text-anchor="middle" pointer-events="none" x="0" y="5" font-size="10px" fill="#FFFFFF" font-family="Helvetica Neue, Helvetica, Arial, sans-serif"> 1</text></g><g class="node" aria-label="graph-node14" transform="translate(-345.5950433741344,500.9418710274094)"><circle class="b-outline" cx="0" cy="0" r="25" fill="#F16667" stroke="#eb2728" stroke-width="2px"/><text class="caption" text-anchor="middle" pointer-events="none" x="0" y="5" font-size="10px" fill="#FFFFFF" font-family="Helvetica Neue, Helvetica, Arial, sans-serif"> 2</text></g><g class="node" aria-label="graph-node15" transform="translate(622.1572551381751,325.98036627081177)"><circle class="b-outline" cx="0" cy="0" r="25" fill="#F16667" stroke="#eb2728" stroke-width="2px"/><text class="caption" text-anchor="middle" pointer-events="none" x="0" y="5" font-size="10px" fill="#FFFFFF" font-family="Helvetica Neue, Helvetica, Arial, sans-serif"> 2</text></g><g class="node" aria-label="graph-node16" transform="translate(-295.82128474856785,283.42460041843503)"><circle class="b-outline" cx="0" cy="0" r="25" fill="#F16667" stroke="#eb2728" stroke-width="2px"/><text class="caption" text-anchor="middle" pointer-events="none" x="0" y="5" font-size="10px" fill="#FFFFFF" font-family="Helvetica Neue, Helvetica, Arial, sans-serif"> 2</text></g><g class="node" aria-label="graph-node17" transform="translate(-244.92044519366863,557.6705955166434)"><circle class="b-outline" cx="0" cy="0" r="25" fill="#F16667" stroke="#eb2728" stroke-width="2px"/><text class="caption" text-anchor="middle" pointer-events="none" x="0" y="5" font-size="10px" fill="#FFFFFF" font-family="Helvetica Neue, Helvetica, Arial, sans-serif"> 3</text></g><g class="node" aria-label="graph-node18" transform="translate(511.1522436751842,263.3960887120892)"><circle class="b-outline" cx="0" cy="0" r="25" fill="#F16667" stroke="#eb2728" stroke-width="2px"/><text class="caption" text-anchor="middle" pointer-events="none" x="0" y="5" font-size="10px" fill="#FFFFFF" font-family="Helvetica Neue, Helvetica, Arial, sans-serif"> 3</text></g><g class="node" aria-label="graph-node19" transform="translate(-267.49341085192395,439.76440132706654)"><circle class="b-outline" cx="0" cy="0" r="25" fill="#F16667" stroke="#eb2728" stroke-width="2px"/><text class="caption" text-anchor="middle" pointer-events="none" x="0" y="5" font-size="10px" fill="#FFFFFF" font-family="Helvetica Neue, Helvetica, Arial, sans-serif"> 3</text></g><g class="node" aria-label="graph-node20" transform="translate(-58.92869848917822,-173.87940813335874)"><circle class="b-outline" cx="0" cy="0" r="25" fill="#F16667" stroke="#eb2728" stroke-width="2px"/><text class="caption" text-anchor="middle" pointer-events="none" x="0" y="5" font-size="10px" fill="#FFFFFF" font-family="Helvetica Neue, Helvetica, Arial, sans-serif"> 1</text></g><g class="node" aria-label="graph-node21" transform="translate(-502.01098696540214,752.6510219421948)"><circle class="b-outline" cx="0" cy="0" r="25" fill="#D9C8AE" stroke="#c0a378" stroke-width="2px"/><text class="caption" text-anchor="middle" pointer-events="none" x="0" y="5" font-size="10px" fill="#2A2C34" font-family="Helvetica Neue, Helvetica, Arial, sans-serif"> 125</text></g><g class="node" aria-label="graph-node22" transform="translate(-503.47339384514555,829.4773166846884)"><circle class="b-outline" cx="0" cy="0" r="25" fill="#D9C8AE" stroke="#c0a378" stroke-width="2px"/><text class="caption" text-anchor="middle" pointer-events="none" x="0" y="5" font-size="10px" fill="#2A2C34" font-family="Helvetica Neue, Helvetica, Arial, sans-serif"> 125</text></g><g class="node" aria-label="graph-node23" transform="translate(-536.5187875480528,669.522181388642)"><circle class="b-outline" cx="0" cy="0" r="25" fill="#D9C8AE" stroke="#c0a378" stroke-width="2px"/><text class="caption" text-anchor="middle" pointer-events="none" x="0" y="5" font-size="10px" fill="#2A2C34" font-family="Helvetica Neue, Helvetica, Arial, sans-serif"> 125</text></g><g class="node" aria-label="graph-node24" transform="translate(654.7174639329846,64.07820043438535)"><circle class="b-outline" cx="0" cy="0" r="25" fill="#D9C8AE" stroke="#c0a378" stroke-width="2px"/><text class="caption" text-anchor="middle" pointer-events="none" x="0" y="5" font-size="10px" fill="#2A2C34" font-family="Helvetica Neue, Helvetica, Arial, sans-serif"> 85</text></g><g class="node" aria-label="graph-node25" transform="translate(627.6159235590007,165.34143221458427)"><circle class="b-outline" cx="0" cy="0" r="25" fill="#D9C8AE" stroke="#c0a378" stroke-width="2px"/><text class="caption" text-anchor="middle" pointer-events="none" x="0" y="5" font-size="10px" fill="#2A2C34" font-family="Helvetica Neue, Helvetica, Arial, sans-serif"> 85</text></g><g class="node" aria-label="graph-node26" transform="translate(711.7876338575991,-66.8285402652223)"><circle class="b-outline" cx="0" cy="0" r="25" fill="#D9C8AE" stroke="#c0a378" stroke-width="2px"/><text class="caption" text-anchor="middle" pointer-events="none" x="0" y="5" font-size="10px" fill="#2A2C34" font-family="Helvetica Neue, Helvetica, Arial, sans-serif"> 85</text></g><g class="node" aria-label="graph-node27" transform="translate(-135.02136250384768,120.36289619397346)"><circle class="b-outline" cx="0" cy="0" r="25" fill="#D9C8AE" stroke="#c0a378" stroke-width="2px"/><text class="caption" text-anchor="middle" pointer-events="none" x="0" y="5" font-size="10px" fill="#2A2C34" font-family="Helvetica Neue, Helvetica, Arial, sans-serif"> 155</text></g><g class="node" aria-label="graph-node28" transform="translate(-65.98111891905694,49.23662146993075)"><circle class="b-outline" cx="0" cy="0" r="25" fill="#D9C8AE" stroke="#c0a378" stroke-width="2px"/><text class="caption" text-anchor="middle" pointer-events="none" x="0" y="5" font-size="10px" fill="#2A2C34" font-family="Helvetica Neue, Helvetica, Arial, sans-serif"> 155</text></g><g class="node" aria-label="graph-node29" transform="translate(-319.8607484640337,187.82462307143956)"><circle class="b-outline" cx="0" cy="0" r="25" fill="#D9C8AE" stroke="#c0a378" stroke-width="2px"/><text class="caption" text-anchor="middle" pointer-events="none" x="0" y="5" font-size="10px" fill="#2A2C34" font-family="Helvetica Neue, Helvetica, Arial, sans-serif"> 155</text></g><g class="node" aria-label="graph-node30" transform="translate(-595.2734850709056,428.26539360178106)"><circle class="b-outline" cx="0" cy="0" r="25" fill="#D9C8AE" stroke="#c0a378" stroke-width="2px"/><text class="caption" text-anchor="middle" pointer-events="none" x="0" y="5" font-size="10px" fill="#2A2C34" font-family="Helvetica Neue, Helvetica, Arial, sans-serif"> 135</text></g><g class="node" aria-label="graph-node31" transform="translate(-498.0197583325561,418.42618572416796)"><circle class="b-outline" cx="0" cy="0" r="25" fill="#D9C8AE" stroke="#c0a378" stroke-width="2px"/><text class="caption" text-anchor="middle" pointer-events="none" x="0" y="5" font-size="10px" fill="#2A2C34" font-family="Helvetica Neue, Helvetica, Arial, sans-serif"> 135</text></g><g class="node" aria-label="graph-node32" transform="translate(-520.420335176659,511.8086158432302)"><circle class="b-outline" cx="0" cy="0" r="25" fill="#D9C8AE" stroke="#c0a378" stroke-width="2px"/><text class="caption" text-anchor="middle" pointer-events="none" x="0" y="5" font-size="10px" fill="#2A2C34" font-family="Helvetica Neue, Helvetica, Arial, sans-serif"> 135</text></g><g class="node" aria-label="graph-node33" transform="translate(866.4149362191214,397.3560716774067)"><circle class="b-outline" cx="0" cy="0" r="25" fill="#D9C8AE" stroke="#c0a378" stroke-width="2px"/><text class="caption" text-anchor="middle" pointer-events="none" x="0" y="5" font-size="10px" fill="#2A2C34" font-family="Helvetica Neue, Helvetica, Arial, sans-serif"> 95</text></g><g class="node" aria-label="graph-node34" transform="translate(765.4253863054735,247.86394930111288)"><circle class="b-outline" cx="0" cy="0" r="25" fill="#D9C8AE" stroke="#c0a378" stroke-width="2px"/><text class="caption" text-anchor="middle" pointer-events="none" x="0" y="5" font-size="10px" fill="#2A2C34" font-family="Helvetica Neue, Helvetica, Arial, sans-serif"> 95</text></g><g class="node" aria-label="graph-node35" transform="translate(817.4687788875735,300.95619160047)"><circle class="b-outline" cx="0" cy="0" r="25" fill="#D9C8AE" stroke="#c0a378" stroke-width="2px"/><text class="caption" text-anchor="middle" pointer-events="none" x="0" y="5" font-size="10px" fill="#2A2C34" font-family="Helvetica Neue, Helvetica, Arial, sans-serif"> 95</text></g><g class="node" aria-label="graph-node36" transform="translate(-551.2511610958276,317.99301239237667)"><circle class="b-outline" cx="0" cy="0" r="25" fill="#D9C8AE" stroke="#c0a378" stroke-width="2px"/><text class="caption" text-anchor="middle" pointer-events="none" x="0" y="5" font-size="10px" fill="#2A2C34" font-family="Helvetica Neue, Helvetica, Arial, sans-serif"> 165</text></g><g class="node" aria-label="graph-node37" transform="translate(-497.84862091695214,175.68251985631977)"><circle class="b-outline" cx="0" cy="0" r="25" fill="#D9C8AE" stroke="#c0a378" stroke-width="2px"/><text class="caption" text-anchor="middle" pointer-events="none" x="0" y="5" font-size="10px" fill="#2A2C34" font-family="Helvetica Neue, Helvetica, Arial, sans-serif"> 165</text></g><g class="node" aria-label="graph-node38" transform="translate(-201.94549639026417,36.68328841690534)"><circle class="b-outline" cx="0" cy="0" r="25" fill="#D9C8AE" stroke="#c0a378" stroke-width="2px"/><text class="caption" text-anchor="middle" pointer-events="none" x="0" y="5" font-size="10px" fill="#2A2C34" font-family="Helvetica Neue, Helvetica, Arial, sans-serif"> 165</text></g><g class="node" aria-label="graph-node39" transform="translate(-427.49773851895117,614.1425844039214)"><circle class="b-outline" cx="0" cy="0" r="25" fill="#D9C8AE" stroke="#c0a378" stroke-width="2px"/><text class="caption" text-anchor="middle" pointer-events="none" x="0" y="5" font-size="10px" fill="#2A2C34" font-family="Helvetica Neue, Helvetica, Arial, sans-serif"> 145</text></g><g class="node" aria-label="graph-node40" transform="translate(681.0809378701163,205.626432617284)"><circle class="b-outline" cx="0" cy="0" r="25" fill="#D9C8AE" stroke="#c0a378" stroke-width="2px"/><text class="caption" text-anchor="middle" pointer-events="none" x="0" y="5" font-size="10px" fill="#2A2C34" font-family="Helvetica Neue, Helvetica, Arial, sans-serif"> 110</text></g><g class="node" aria-label="graph-node41" transform="translate(-465.1707488912074,269.5887141034849)"><circle class="b-outline" cx="0" cy="0" r="25" fill="#D9C8AE" stroke="#c0a378" stroke-width="2px"/><text class="caption" text-anchor="middle" pointer-events="none" x="0" y="5" font-size="10px" fill="#2A2C34" font-family="Helvetica Neue, Helvetica, Arial, sans-serif"> 175</text></g><g class="node" aria-label="graph-node42" transform="translate(369.94287255951696,-13.365881285064784)"><circle class="b-outline" cx="0" cy="0" r="25" fill="#D9C8AE" stroke="#c0a378" stroke-width="2px"/><text class="caption" text-anchor="middle" pointer-events="none" x="0" y="5" font-size="10px" fill="#2A2C34" font-family="Helvetica Neue, Helvetica, Arial, sans-serif"> 120</text></g><g class="node" aria-label="graph-node43" transform="translate(370.7143019201312,-110.56797575436133)"><circle class="b-outline" cx="0" cy="0" r="25" fill="#D9C8AE" stroke="#c0a378" stroke-width="2px"/><text class="caption" text-anchor="middle" pointer-events="none" x="0" y="5" font-size="10px" fill="#2A2C34" font-family="Helvetica Neue, Helvetica, Arial, sans-serif"> 120</text></g><g class="node" aria-label="graph-node44" transform="translate(466.720451751826,-135.90057741127941)"><circle class="b-outline" cx="0" cy="0" r="25" fill="#D9C8AE" stroke="#c0a378" stroke-width="2px"/><text class="caption" text-anchor="middle" pointer-events="none" x="0" y="5" font-size="10px" fill="#2A2C34" font-family="Helvetica Neue, Helvetica, Arial, sans-serif"> 120</text></g><g class="node" aria-label="graph-node45" transform="translate(25.028568462099436,-362.07619703095344)"><circle class="b-outline" cx="0" cy="0" r="25" fill="#D9C8AE" stroke="#c0a378" stroke-width="2px"/><text class="caption" text-anchor="middle" pointer-events="none" x="0" y="5" font-size="10px" fill="#2A2C34" font-family="Helvetica Neue, Helvetica, Arial, sans-serif"> 90</text></g><g class="node" aria-label="graph-node46" transform="translate(121.02404639058761,-342.9935093957171)"><circle class="b-outline" cx="0" cy="0" r="25" fill="#D9C8AE" stroke="#c0a378" stroke-width="2px"/><text class="caption" text-anchor="middle" pointer-events="none" x="0" y="5" font-size="10px" fill="#2A2C34" font-family="Helvetica Neue, Helvetica, Arial, sans-serif"> 90</text></g><g class="node" aria-label="graph-node47" transform="translate(125.934711574666,-245.1074341327864)"><circle class="b-outline" cx="0" cy="0" r="25" fill="#D9C8AE" stroke="#c0a378" stroke-width="2px"/><text class="caption" text-anchor="middle" pointer-events="none" x="0" y="5" font-size="10px" fill="#2A2C34" font-family="Helvetica Neue, Helvetica, Arial, sans-serif"> 90</text></g><g class="node" aria-label="graph-node48" transform="translate(-304.2343368950718,-342.22038624664674)"><circle class="b-outline" cx="0" cy="0" r="25" fill="#D9C8AE" stroke="#c0a378" stroke-width="2px"/><text class="caption" text-anchor="middle" pointer-events="none" x="0" y="5" font-size="10px" fill="#2A2C34" font-family="Helvetica Neue, Helvetica, Arial, sans-serif"> 20</text></g><g class="node" aria-label="graph-node49" transform="translate(-415.11317727024624,-234.55057591532557)"><circle class="b-outline" cx="0" cy="0" r="25" fill="#D9C8AE" stroke="#c0a378" stroke-width="2px"/><text class="caption" text-anchor="middle" pointer-events="none" x="0" y="5" font-size="10px" fill="#2A2C34" font-family="Helvetica Neue, Helvetica, Arial, sans-serif"> 20</text></g><g class="node" aria-label="graph-node50" transform="translate(-343.4620911291932,-251.3563563605171)"><circle class="b-outline" cx="0" cy="0" r="25" fill="#D9C8AE" stroke="#c0a378" stroke-width="2px"/><text class="caption" text-anchor="middle" pointer-events="none" x="0" y="5" font-size="10px" fill="#2A2C34" font-family="Helvetica Neue, Helvetica, Arial, sans-serif"> 20</text></g><g class="node" aria-label="graph-node51" transform="translate(-370.6325271372313,43.67061285257642)"><circle class="b-outline" cx="0" cy="0" r="25" fill="#D9C8AE" stroke="#c0a378" stroke-width="2px"/><text class="caption" text-anchor="middle" pointer-events="none" x="0" y="5" font-size="10px" fill="#2A2C34" font-family="Helvetica Neue, Helvetica, Arial, sans-serif"> 165</text></g><g class="node" aria-label="graph-node52" transform="translate(-443.2454920763962,-66.56531326177648)"><circle class="b-outline" cx="0" cy="0" r="25" fill="#D9C8AE" stroke="#c0a378" stroke-width="2px"/><text class="caption" text-anchor="middle" pointer-events="none" x="0" y="5" font-size="10px" fill="#2A2C34" font-family="Helvetica Neue, Helvetica, Arial, sans-serif"> 160</text></g><g class="node" aria-label="graph-node53" transform="translate(-346.6403247909226,-50.37064977806895)"><circle class="b-outline" cx="0" cy="0" r="25" fill="#D9C8AE" stroke="#c0a378" stroke-width="2px"/><text class="caption" text-anchor="middle" pointer-events="none" x="0" y="5" font-size="10px" fill="#2A2C34" font-family="Helvetica Neue, Helvetica, Arial, sans-serif"> 160</text></g></g></svg>